<mxfile host="app.diagrams.net" modified="2021-09-11T02:12:45.475Z" agent="5.0 (Macintosh; Intel Mac OS X 10_14_3) AppleWebKit/537.36 (KHTML, like Gecko) Chrome/93.0.4577.63 Safari/537.36" etag="TkyCteWhZqvKNgyk8WDY" version="15.1.4" type="github">
  <diagram id="3228e29e-7158-1315-38df-8450db1d8a1d" name="Page-1">
    <mxGraphModel dx="435" dy="19" grid="0" gridSize="10" guides="1" tooltips="1" connect="1" arrows="1" fold="1" page="1" pageScale="1" pageWidth="600" pageHeight="550" background="#EFF1F3" math="0" shadow="1">
      <root>
        <mxCell id="0" />
        <mxCell id="1" parent="0" />
        <mxCell id="_KJd5dzx4qh3lxpyMWcO-2" value="" style="fontColor=#0066CC;verticalAlign=top;verticalLabelPosition=bottom;labelPosition=center;align=center;html=1;outlineConnect=0;gradientColor=none;gradientDirection=north;strokeWidth=2;shape=mxgraph.networks.pc;fillColor=#67AB9F;fontSize=30;" parent="1" vertex="1">
          <mxGeometry x="100.18" y="594" width="74.65" height="54" as="geometry" />
        </mxCell>
        <mxCell id="T-5VQnCJckOgUX1Wp16H-28" value="客户端" style="text;html=1;strokeColor=none;fillColor=none;align=center;verticalAlign=middle;whiteSpace=wrap;rounded=0;fontSize=22;" parent="1" vertex="1">
          <mxGeometry x="48" y="662" width="179" height="20" as="geometry" />
        </mxCell>
        <mxCell id="aH1-eks404bDhsACtXEq-2" value="" style="fontColor=#0066CC;verticalAlign=top;verticalLabelPosition=bottom;labelPosition=center;align=center;html=1;outlineConnect=0;gradientColor=none;gradientDirection=north;strokeWidth=2;shape=mxgraph.networks.server;fillColor=#4A919B;" parent="1" vertex="1">
          <mxGeometry x="432.18" y="584" width="51.5" height="64" as="geometry" />
        </mxCell>
        <mxCell id="aH1-eks404bDhsACtXEq-3" value="服务端" style="text;html=1;strokeColor=none;fillColor=none;align=center;verticalAlign=middle;whiteSpace=wrap;rounded=0;fontSize=22;" parent="1" vertex="1">
          <mxGeometry x="372" y="662" width="179" height="20" as="geometry" />
        </mxCell>
        <mxCell id="aH1-eks404bDhsACtXEq-7" value="" style="endArrow=none;html=1;strokeWidth=5;" parent="1" edge="1">
          <mxGeometry width="50" height="50" relative="1" as="geometry">
            <mxPoint x="153" y="1063" as="sourcePoint" />
            <mxPoint x="153" y="727" as="targetPoint" />
          </mxGeometry>
        </mxCell>
        <mxCell id="aH1-eks404bDhsACtXEq-10" value="" style="endArrow=classic;html=1;strokeWidth=5;fontSize=20;" parent="1" edge="1">
          <mxGeometry width="50" height="50" relative="1" as="geometry">
            <mxPoint x="172" y="774" as="sourcePoint" />
            <mxPoint x="428" y="789" as="targetPoint" />
          </mxGeometry>
        </mxCell>
        <mxCell id="aH1-eks404bDhsACtXEq-11" value="&lt;font style=&quot;font-size: 18px&quot;&gt;SYN，seq=x&lt;/font&gt;" style="text;html=1;strokeColor=none;fillColor=none;align=center;verticalAlign=middle;whiteSpace=wrap;rounded=0;fontSize=20;" parent="1" vertex="1">
          <mxGeometry x="239" y="750" width="141" height="21" as="geometry" />
        </mxCell>
        <mxCell id="aH1-eks404bDhsACtXEq-12" value="" style="endArrow=none;html=1;strokeWidth=5;startArrow=classic;startFill=1;endFill=0;" parent="1" edge="1">
          <mxGeometry width="50" height="50" relative="1" as="geometry">
            <mxPoint x="163" y="872" as="sourcePoint" />
            <mxPoint x="422" y="809" as="targetPoint" />
          </mxGeometry>
        </mxCell>
        <mxCell id="aH1-eks404bDhsACtXEq-13" value="" style="endArrow=classic;html=1;strokeWidth=5;" parent="1" edge="1">
          <mxGeometry width="50" height="50" relative="1" as="geometry">
            <mxPoint x="171" y="885" as="sourcePoint" />
            <mxPoint x="424" y="916" as="targetPoint" />
          </mxGeometry>
        </mxCell>
        <mxCell id="aH1-eks404bDhsACtXEq-16" value="SYN_SENT" style="rounded=1;whiteSpace=wrap;html=1;dashed=1;strokeWidth=3;fillColor=#535E80;strokeColor=none;fontColor=#FFFFFF;" parent="1" vertex="1">
          <mxGeometry x="48" y="773" width="88" height="103" as="geometry" />
        </mxCell>
        <mxCell id="aH1-eks404bDhsACtXEq-17" value="LISTEN" style="rounded=1;whiteSpace=wrap;html=1;dashed=1;strokeWidth=3;strokeColor=none;fillColor=#535E80;fontColor=#FFFFFF;" parent="1" vertex="1">
          <mxGeometry x="453.41" y="744" width="89" height="51" as="geometry" />
        </mxCell>
        <mxCell id="aH1-eks404bDhsACtXEq-18" value="&lt;span&gt;SYN_RCVD&lt;/span&gt;" style="rounded=1;whiteSpace=wrap;html=1;dashed=1;strokeWidth=3;fontColor=#FFFFFF;fillColor=#535E80;strokeColor=none;" parent="1" vertex="1">
          <mxGeometry x="453.41" y="807" width="89" height="105" as="geometry" />
        </mxCell>
        <mxCell id="aH1-eks404bDhsACtXEq-19" value="ESTABLISHED" style="rounded=1;whiteSpace=wrap;html=1;dashed=1;strokeWidth=3;strokeColor=none;fillColor=#535E80;fontColor=#FFFFFF;" parent="1" vertex="1">
          <mxGeometry x="454.35" y="924" width="90.65" height="99" as="geometry" />
        </mxCell>
        <mxCell id="aH1-eks404bDhsACtXEq-21" value="ESTABLISHED" style="rounded=1;whiteSpace=wrap;html=1;dashed=1;strokeWidth=3;fillColor=#535E80;strokeColor=none;fontColor=#FFFFFF;" parent="1" vertex="1">
          <mxGeometry x="48" y="887" width="88" height="166" as="geometry" />
        </mxCell>
        <mxCell id="aH1-eks404bDhsACtXEq-22" value="&lt;font style=&quot;font-size: 18px&quot;&gt;SYN,seq=y,ACK=x+1&lt;/font&gt;" style="text;html=1;strokeColor=none;fillColor=none;align=center;verticalAlign=middle;whiteSpace=wrap;rounded=0;fontSize=20;rotation=-15;" parent="1" vertex="1">
          <mxGeometry x="139.59" y="811.9200000000001" width="269" height="32" as="geometry" />
        </mxCell>
        <mxCell id="aH1-eks404bDhsACtXEq-23" value="&lt;font style=&quot;font-size: 18px&quot;&gt;ACK=y+1&lt;/font&gt;" style="text;html=1;strokeColor=none;fillColor=none;align=center;verticalAlign=middle;whiteSpace=wrap;rounded=0;dashed=1;fontSize=20;rotation=0;" parent="1" vertex="1">
          <mxGeometry x="271" y="871" width="132" height="20" as="geometry" />
        </mxCell>
        <mxCell id="BaweCPi1VYB0Lv0gbQKf-3" value="&lt;span style=&quot;font-size: 20px&quot;&gt;connect()&lt;/span&gt;" style="rounded=1;whiteSpace=wrap;html=1;strokeColor=none;fillColor=#4A919B;fontColor=#FFFFFF;" parent="1" vertex="1">
          <mxGeometry x="48" y="724" width="90.59" height="38" as="geometry" />
        </mxCell>
        <mxCell id="BaweCPi1VYB0Lv0gbQKf-4" value="&lt;span style=&quot;font-size: 20px&quot;&gt;listen( )&lt;/span&gt;" style="rounded=1;whiteSpace=wrap;html=1;strokeColor=none;fontColor=#FFFFFF;fillColor=#4A919B;" parent="1" vertex="1">
          <mxGeometry x="450.41" y="702" width="92" height="32" as="geometry" />
        </mxCell>
        <mxCell id="BaweCPi1VYB0Lv0gbQKf-5" value="&lt;span style=&quot;font-size: 20px&quot;&gt;accept( )&lt;/span&gt;" style="rounded=1;whiteSpace=wrap;html=1;strokeColor=none;fontColor=#FFFFFF;fillColor=#4A919B;" parent="1" vertex="1">
          <mxGeometry x="454.35" y="1035" width="90.89" height="32" as="geometry" />
        </mxCell>
        <mxCell id="JQQ4GeZIg-afJDhbqjn4-2" value="" style="endArrow=none;html=1;strokeWidth=5;" parent="1" edge="1">
          <mxGeometry width="50" height="50" relative="1" as="geometry">
            <mxPoint x="437" y="1060" as="sourcePoint" />
            <mxPoint x="437" y="721.5" as="targetPoint" />
          </mxGeometry>
        </mxCell>
      </root>
    </mxGraphModel>
  </diagram>
</mxfile>
